<svg viewBox="0 0 18.6772 20" xmlns="http://www.w3.org/2000/svg" xmlns:xlink="http://www.w3.org/1999/xlink" width="18.677246" height="20.000000" fill="none" customFrame="#000000">
	<mask id="mask_0" width="20.000004" height="18.677452" x="0.000000" y="0.000000" maskUnits="objectBoundingBox">
		<g filter="url(#pixso_custom_mask_type_outline)">
			<path id="合并" d="M3.14639 16.1454C3.26279 16.347 3.39174 16.5388 3.53324 16.7209C3.66436 16.8897 3.80626 17.0501 3.95894 17.2021C4.11186 17.3543 4.27314 17.4957 4.44276 17.6263L4.44279 17.6263C4.61947 17.7623 4.80521 17.8865 5 17.999C5.19474 18.1114 5.39513 18.2101 5.60118 18.2951C5.79913 18.3768 6.0023 18.4458 6.21069 18.5021C6.41874 18.5583 6.62865 18.6011 6.84042 18.6302C7.06881 18.6617 7.29936 18.6775 7.53208 18.6775L12.4679 18.6775C12.7006 18.6775 12.9312 18.6617 13.1596 18.6302C13.3713 18.6011 13.5813 18.5583 13.7893 18.5021C13.9977 18.4458 14.2009 18.3768 14.3989 18.2951C14.6049 18.2101 14.8053 18.1114 15 17.999C15.1948 17.8865 15.3805 17.7623 15.5571 17.6264C15.7268 17.4958 15.8881 17.3543 16.0411 17.2021C16.126 17.1175 16.2077 17.0303 16.2859 16.9405C16.5704 17.1644 16.859 17.3792 17.1518 17.5848C17.3272 17.708 17.4716 17.8059 17.5851 17.8785C18.1526 18.2414 18.8837 18.0806 19.2467 17.5131C19.6096 16.9455 19.4488 16.2144 18.8813 15.8515C18.7972 15.7977 18.6816 15.7192 18.5347 15.616C18.2333 15.4043 17.9365 15.1813 17.6445 14.947C16.7347 14.2173 16.0524 13.5295 15.5975 12.8837C15.1796 12.2903 14.8948 11.5723 14.7432 10.7299C14.6948 10.461 14.6636 10.1977 14.6497 9.93986C14.6433 9.8216 14.6411 9.73514 14.643 9.68048L14.641 9.68041C14.6493 9.56704 14.6534 9.4531 14.6534 9.33862C14.6534 9.1289 14.6396 8.92105 14.6119 8.71505L14.6119 8.71478C14.5978 8.61006 14.5801 8.50582 14.5589 8.40207C14.5279 8.2508 14.4896 8.10183 14.444 7.95513C14.3989 7.81016 14.3467 7.66743 14.2872 7.52692C14.235 7.40347 14.1777 7.28274 14.1152 7.1647C14.0374 7.0176 13.9517 6.87469 13.858 6.73599C13.7794 6.61967 13.6959 6.50733 13.6075 6.39898C13.508 6.27698 13.4023 6.16003 13.2904 6.04813C13.1786 5.93625 13.0616 5.83057 12.9396 5.73108C12.8313 5.6427 12.7189 5.55922 12.6026 5.48062C12.4638 5.38687 12.3209 5.30108 12.1737 5.22323C12.0557 5.16083 11.935 5.10354 11.8117 5.05136C11.6712 4.99193 11.5284 4.93966 11.3834 4.89457C11.2368 4.84894 11.0878 4.81065 10.9365 4.77969C10.8328 4.75846 10.7285 4.74081 10.6238 4.72673C10.4177 4.69903 10.2098 4.68517 9.99996 4.68517C9.79015 4.68517 9.58221 4.69902 9.37612 4.72673C9.2714 4.74081 9.16716 4.75846 9.06341 4.77969C8.91217 4.81064 8.76322 4.84893 8.61654 4.89455C8.47155 4.93965 8.32879 4.99192 8.18826 5.05136C8.06487 5.10355 7.94419 5.16084 7.82621 5.22325C7.67904 5.30109 7.53609 5.38688 7.39733 5.48062C7.281 5.55922 7.16865 5.6427 7.06028 5.73108C6.93829 5.83057 6.82136 5.93625 6.70948 6.04813C6.59759 6.16002 6.4919 6.27696 6.39241 6.39895C6.30404 6.50731 6.22056 6.61966 6.14196 6.73599C6.04821 6.87477 5.9624 7.01775 5.88455 7.16494C5.82216 7.2829 5.76488 7.40356 5.7127 7.52692C5.65327 7.66743 5.601 7.81017 5.55591 7.95514C5.51028 8.10183 5.47199 8.25081 5.44104 8.40207C5.41981 8.50581 5.40215 8.61004 5.38808 8.71475C5.36037 8.92084 5.34651 9.1288 5.34651 9.33862C5.34651 9.54843 5.36037 9.75638 5.38807 9.96247C5.40215 10.0672 5.4198 10.1714 5.44104 10.2752C5.47199 10.4264 5.51027 10.5754 5.5559 10.7221C5.601 10.8671 5.65326 11.0098 5.7127 11.1503C5.76486 11.2737 5.82213 11.3943 5.88451 11.5122L5.88452 11.5122L5.8846 11.5124C5.96244 11.6596 6.04823 11.8025 6.14196 11.9412C6.22056 12.0576 6.30404 12.1699 6.39242 12.2783C6.49191 12.4003 6.59759 12.5172 6.70948 12.6291C6.82139 12.741 6.93837 12.8467 7.0604 12.9463C7.16872 13.0346 7.28104 13.118 7.39733 13.1966C7.53606 13.2903 7.67898 13.3761 7.82612 13.4539C7.94413 13.5164 8.06484 13.5737 8.18826 13.6259C8.32882 13.6853 8.4716 13.7376 8.61662 13.7827L8.6167 13.7827L8.61672 13.7827C8.76333 13.8283 8.91223 13.8666 9.06341 13.8975C9.16715 13.9188 9.27138 13.9364 9.37609 13.9505C9.58218 13.9782 9.79014 13.9921 9.99996 13.9921C10.2098 13.9921 10.4177 13.9782 10.6238 13.9505C10.7285 13.9364 10.8328 13.9188 10.9365 13.8975C11.0878 13.8666 11.2368 13.8283 11.3835 13.7827C11.5284 13.7376 11.6712 13.6853 11.8117 13.6259C11.9351 13.5737 12.0559 13.5163 12.1739 13.4539C12.321 13.3761 12.4639 13.2903 12.6026 13.1966C12.7081 13.1254 12.8102 13.0501 12.9091 12.9708C13.1076 13.4353 13.348 13.8681 13.6305 14.2692C13.8753 14.6168 14.164 14.968 14.4965 15.3227C14.4469 15.3816 14.3946 15.4384 14.3397 15.4931C14.261 15.5714 14.1782 15.6442 14.0911 15.7116C13.997 15.7843 13.8981 15.8506 13.7943 15.9106C13.6904 15.9705 13.5835 16.023 13.4736 16.0681C13.3717 16.1098 13.2671 16.1452 13.16 16.1742C13.055 16.2025 12.9491 16.2243 12.8423 16.2396C12.7188 16.2571 12.594 16.2659 12.4679 16.2659L7.53208 16.2659C7.40605 16.2659 7.28128 16.2572 7.15775 16.2396C7.0509 16.2243 6.94499 16.2025 6.84002 16.1742C6.73285 16.1452 6.62832 16.1098 6.5264 16.0681C6.41647 16.023 6.30958 15.9705 6.20575 15.9106C6.10201 15.8507 6.00318 15.7844 5.90926 15.7118C5.82205 15.6444 5.73907 15.5715 5.66033 15.4931C5.58321 15.4163 5.51133 15.3354 5.44468 15.2504C5.36774 15.1523 5.29779 15.0487 5.23482 14.9396L2.76689 10.6651C2.70388 10.5559 2.6491 10.4434 2.60257 10.3277C2.56233 10.2275 2.52825 10.1249 2.50034 10.0198C2.47188 9.91263 2.45025 9.80451 2.43547 9.69546C2.41949 9.57763 2.4115 9.45872 2.4115 9.33873C2.4115 9.21876 2.41949 9.09987 2.43546 8.98207C2.45024 8.873 2.47187 8.76485 2.50034 8.65763C2.52826 8.55251 2.56235 8.44986 2.60261 8.3497C2.64913 8.23395 2.70389 8.12152 2.76689 8.0124L5.23482 3.73783C5.29783 3.62868 5.36784 3.52501 5.44485 3.42683C5.51144 3.34191 5.58327 3.26109 5.66033 3.18438C5.73894 3.10611 5.82178 3.03331 5.90884 2.96598C6.00288 2.89324 6.10185 2.82688 6.20575 2.76689C6.30964 2.70692 6.41657 2.65439 6.52657 2.60932C6.62843 2.56758 6.73291 2.53224 6.84002 2.50328C6.94501 2.4749 7.05094 2.4531 7.15781 2.43788C7.28132 2.4203 7.40607 2.4115 7.53208 2.4115L12.4679 2.4115C12.5939 2.4115 12.7187 2.4203 12.8422 2.43789C12.9491 2.4531 13.055 2.4749 13.16 2.50328C13.2671 2.53223 13.3715 2.56756 13.4733 2.60928C13.5834 2.65436 13.6903 2.7069 13.7943 2.76689C13.8982 2.82689 13.9972 2.89327 14.0912 2.96603C14.1783 3.03335 14.2611 3.10613 14.3397 3.18438C14.4167 3.26107 14.4885 3.34187 14.5551 3.42677C14.6321 3.52497 14.7022 3.62866 14.7652 3.73783L17.2331 8.0124C17.2961 8.12148 17.3508 8.23388 17.3974 8.34959C17.4376 8.44979 17.4717 8.55247 17.4997 8.65763C17.5281 8.76481 17.5497 8.87292 17.5645 8.98196C17.5748 9.05794 17.5818 9.13436 17.5855 9.21124C17.5988 9.30613 17.6141 9.42087 17.6312 9.55547C17.6923 10.0355 17.7507 10.3887 17.8062 10.6152C17.876 10.9 17.9559 11.1062 18.0458 11.234C18.3707 11.6951 18.7001 12.0733 19.0342 12.3685L19.3215 11.8708C19.4379 11.6692 19.5396 11.4616 19.6266 11.248C19.7071 11.0501 19.7751 10.847 19.8304 10.6388C19.8858 10.4302 19.9276 10.2199 19.9558 10.0077C19.9853 9.78665 20 9.56367 20 9.33872C20 9.11379 19.9853 8.89081 19.9558 8.6698C19.9276 8.45762 19.8858 8.24724 19.8304 8.03867C19.7751 7.83043 19.7071 7.62733 19.6265 7.42938C19.5396 7.21581 19.4379 7.00823 19.3215 6.80665L16.8536 2.53208C16.7372 2.33047 16.6083 2.13862 16.4668 1.95652C16.3356 1.78777 16.1937 1.6274 16.0411 1.47539C15.8881 1.3231 15.7268 1.18165 15.5571 1.05105C15.3804 0.915099 15.1947 0.790904 15 0.678468C14.8052 0.566027 14.6048 0.467305 14.3988 0.382302L14.3987 0.382271C14.2008 0.300642 13.9977 0.231666 13.7893 0.175343C13.5813 0.119109 13.3714 0.0764012 13.1597 0.0472194C12.9313 0.0157399 12.7007 0 12.4679 0L7.53208 0C7.29934 0 7.06877 0.015738 6.84037 0.0472139L6.84036 0.0472158C6.6286 0.0763978 6.41872 0.119107 6.21069 0.175343C6.00233 0.231671 5.79919 0.300654 5.60127 0.382294C5.39518 0.467298 5.19476 0.566023 5 0.678469C4.80524 0.790914 4.61953 0.915121 4.44288 1.05109L4.44286 1.0511L4.44283 1.05113C4.27318 1.1817 4.11188 1.32313 3.95894 1.47539C3.80621 1.62744 3.66427 1.78787 3.53311 1.95668C3.39166 2.13873 3.26275 2.33053 3.14639 2.53208L0.678469 6.80665C0.562082 7.00823 0.460414 7.21581 0.373463 7.42938L0.373417 7.4295C0.292848 7.62741 0.224917 7.83047 0.169626 8.03867C0.114227 8.24728 0.0723985 8.45769 0.0441391 8.66991C0.0147131 8.89089 0 9.11383 0 9.33873C0 9.56361 0.0147119 9.78654 0.0441356 10.0075C0.072395 10.2197 0.114225 10.4302 0.169625 10.6388C0.224935 10.847 0.292892 11.0502 0.373496 11.2481C0.460439 11.4617 0.562097 11.6692 0.678468 11.8708L3.14639 16.1454ZM9.48176 7.15628C9.6498 7.11654 9.82253 7.09667 9.99996 7.09667C10.1774 7.09667 10.3501 7.11654 10.5182 7.15629C10.6386 7.18477 10.7566 7.22346 10.8723 7.27236C10.9936 7.32368 11.1087 7.38461 11.2176 7.45515C11.3492 7.54048 11.4718 7.63987 11.5853 7.75333C11.6987 7.86678 11.7981 7.98934 11.8834 8.12101C11.954 8.22989 12.0149 8.34499 12.0662 8.46632C12.1151 8.58194 12.1538 8.69997 12.1823 8.82042C12.222 8.98845 12.2419 9.16119 12.2419 9.33862C12.2419 9.51605 12.222 9.68879 12.1823 9.85682C12.1538 9.97727 12.1151 10.0953 12.0662 10.2109C12.0149 10.3322 11.954 10.4473 11.8834 10.5562C11.7981 10.6879 11.6987 10.8105 11.5853 10.9239C11.4718 11.0373 11.3493 11.1367 11.2176 11.222L11.2176 11.2221C11.1087 11.2926 10.9936 11.3536 10.8723 11.4049C10.7566 11.4538 10.6386 11.4925 10.5182 11.521C10.3501 11.5607 10.1774 11.5806 9.99996 11.5806C9.82253 11.5806 9.6498 11.5607 9.48177 11.521C9.36132 11.4925 9.24328 11.4538 9.12767 11.4049C9.00634 11.3536 8.89124 11.2926 8.78237 11.2221L8.78234 11.2221L8.7823 11.222C8.65064 11.1367 8.5281 11.0373 8.41467 10.9239C8.30122 10.8105 8.20183 10.6879 8.11651 10.5562C8.04596 10.4474 7.98502 10.3322 7.9337 10.2109C7.8848 10.0953 7.84611 9.97727 7.81763 9.85682C7.77789 9.68879 7.75802 9.51605 7.75802 9.33862C7.75802 9.16118 7.77789 8.98845 7.81763 8.82041C7.84611 8.69996 7.8848 8.58194 7.9337 8.46632C7.98502 8.34499 8.04595 8.22989 8.1165 8.12102C8.20183 7.98934 8.30121 7.86678 8.41467 7.75333C8.52812 7.63987 8.65068 7.54049 8.78236 7.45516C8.89123 7.38461 9.00633 7.32368 9.12767 7.27236C9.24328 7.22346 9.36131 7.18477 9.48176 7.15628Z" fill="rgb(255,255,255)" fill-rule="evenodd" transform="matrix(0,1,1,0,0,0)" />
		</g>
	</mask>
	<defs>
		<linearGradient id="paint_linear_0" x1="3.06242514" x2="18.4716988" y1="0.716384411" y2="14.7475376" gradientUnits="userSpaceOnUse">
			<stop stop-color="rgb(143,38,255)" offset="0" stop-opacity="1" />
			<stop stop-color="rgb(36.787,60.925,254.848)" offset="0.437544525" stop-opacity="1" />
			<stop stop-color="rgb(25,220,255)" offset="1" stop-opacity="1" />
		</linearGradient>
		<filter id="pixso_custom_mask_type_outline">
			<feColorMatrix type="matrix" values="0 0 0 0 1 0 0 0 0 1 0 0 0 0 1 0 0 0 1 0 " />
		</filter>
		<linearGradient id="paint_linear_1" x1="0.513622999" x2="11.1836586" y1="5.31731796" y2="10.357254" gradientUnits="userSpaceOnUse">
			<stop stop-color="rgb(32,48,216)" offset="0" stop-opacity="1" />
			<stop stop-color="rgb(143,38,255)" offset="0.835064352" stop-opacity="0" />
		</linearGradient>
		<linearGradient id="paint_linear_2" x1="0.513622999" x2="11.1836557" y1="5.31731939" y2="10.3572512" gradientUnits="userSpaceOnUse">
			<stop stop-color="rgb(32,48,216)" offset="0" stop-opacity="1" />
			<stop stop-color="rgb(143,38,255)" offset="0.835064352" stop-opacity="0" />
		</linearGradient>
		<linearGradient id="paint_linear_3" x1="8.80126953" x2="18.0598774" y1="18.6359043" y2="8.4074192" gradientUnits="userSpaceOnUse">
			<stop stop-color="rgb(30,219,254)" offset="0" stop-opacity="1" />
			<stop stop-color="rgb(36.787,60.925,254.848)" offset="1" stop-opacity="0" />
		</linearGradient>
	</defs>
	<g id="组合 2311" showMaskRef="url(#show_mask_0)" mask="url(#mask_0)">
		<path id="show_mask_0" d="M3.14639 16.1454C3.26279 16.347 3.39174 16.5388 3.53324 16.7209C3.66436 16.8897 3.80626 17.0501 3.95894 17.2021C4.11186 17.3543 4.27314 17.4957 4.44276 17.6263L4.44279 17.6263C4.61947 17.7623 4.80521 17.8865 5 17.999C5.19474 18.1114 5.39513 18.2101 5.60118 18.2951C5.79913 18.3768 6.0023 18.4458 6.21069 18.5021C6.41874 18.5583 6.62865 18.6011 6.84042 18.6302C7.06881 18.6617 7.29936 18.6775 7.53208 18.6775L12.4679 18.6775C12.7006 18.6775 12.9312 18.6617 13.1596 18.6302C13.3713 18.6011 13.5813 18.5583 13.7893 18.5021C13.9977 18.4458 14.2009 18.3768 14.3989 18.2951C14.6049 18.2101 14.8053 18.1114 15 17.999C15.1948 17.8865 15.3805 17.7623 15.5571 17.6264C15.7268 17.4958 15.8881 17.3543 16.0411 17.2021C16.126 17.1175 16.2077 17.0303 16.2859 16.9405C16.5704 17.1644 16.859 17.3792 17.1518 17.5848C17.3272 17.708 17.4716 17.8059 17.5851 17.8785C18.1526 18.2414 18.8837 18.0806 19.2467 17.5131C19.6096 16.9455 19.4488 16.2144 18.8813 15.8515C18.7972 15.7977 18.6816 15.7192 18.5347 15.616C18.2333 15.4043 17.9365 15.1813 17.6445 14.947C16.7347 14.2173 16.0524 13.5295 15.5975 12.8837C15.1796 12.2903 14.8948 11.5723 14.7432 10.7299C14.6948 10.461 14.6636 10.1977 14.6497 9.93986C14.6433 9.8216 14.6411 9.73514 14.643 9.68048L14.641 9.68041C14.6493 9.56704 14.6534 9.4531 14.6534 9.33862C14.6534 9.1289 14.6396 8.92105 14.6119 8.71505L14.6119 8.71478C14.5978 8.61006 14.5801 8.50582 14.5589 8.40207C14.5279 8.2508 14.4896 8.10183 14.444 7.95513C14.3989 7.81016 14.3467 7.66743 14.2872 7.52692C14.235 7.40347 14.1777 7.28274 14.1152 7.1647C14.0374 7.0176 13.9517 6.87469 13.858 6.73599C13.7794 6.61967 13.6959 6.50733 13.6075 6.39898C13.508 6.27698 13.4023 6.16003 13.2904 6.04813C13.1786 5.93625 13.0616 5.83057 12.9396 5.73108C12.8313 5.6427 12.7189 5.55922 12.6026 5.48062C12.4638 5.38687 12.3209 5.30108 12.1737 5.22323C12.0557 5.16083 11.935 5.10354 11.8117 5.05136C11.6712 4.99193 11.5284 4.93966 11.3834 4.89457C11.2368 4.84894 11.0878 4.81065 10.9365 4.77969C10.8328 4.75846 10.7285 4.74081 10.6238 4.72673C10.4177 4.69903 10.2098 4.68517 9.99996 4.68517C9.79015 4.68517 9.58221 4.69902 9.37612 4.72673C9.2714 4.74081 9.16716 4.75846 9.06341 4.77969C8.91217 4.81064 8.76322 4.84893 8.61654 4.89455C8.47155 4.93965 8.32879 4.99192 8.18826 5.05136C8.06487 5.10355 7.94419 5.16084 7.82621 5.22325C7.67904 5.30109 7.53609 5.38688 7.39733 5.48062C7.281 5.55922 7.16865 5.6427 7.06028 5.73108C6.93829 5.83057 6.82136 5.93625 6.70948 6.04813C6.59759 6.16002 6.4919 6.27696 6.39241 6.39895C6.30404 6.50731 6.22056 6.61966 6.14196 6.73599C6.04821 6.87477 5.9624 7.01775 5.88455 7.16494C5.82216 7.2829 5.76488 7.40356 5.7127 7.52692C5.65327 7.66743 5.601 7.81017 5.55591 7.95514C5.51028 8.10183 5.47199 8.25081 5.44104 8.40207C5.41981 8.50581 5.40215 8.61004 5.38808 8.71475C5.36037 8.92084 5.34651 9.1288 5.34651 9.33862C5.34651 9.54843 5.36037 9.75638 5.38807 9.96247C5.40215 10.0672 5.4198 10.1714 5.44104 10.2752C5.47199 10.4264 5.51027 10.5754 5.5559 10.7221C5.601 10.8671 5.65326 11.0098 5.7127 11.1503C5.76486 11.2737 5.82213 11.3943 5.88451 11.5122L5.88452 11.5122L5.8846 11.5124C5.96244 11.6596 6.04823 11.8025 6.14196 11.9412C6.22056 12.0576 6.30404 12.1699 6.39242 12.2783C6.49191 12.4003 6.59759 12.5172 6.70948 12.6291C6.82139 12.741 6.93837 12.8467 7.0604 12.9463C7.16872 13.0346 7.28104 13.118 7.39733 13.1966C7.53606 13.2903 7.67898 13.3761 7.82612 13.4539C7.94413 13.5164 8.06484 13.5737 8.18826 13.6259C8.32882 13.6853 8.4716 13.7376 8.61662 13.7827L8.6167 13.7827L8.61672 13.7827C8.76333 13.8283 8.91223 13.8666 9.06341 13.8975C9.16715 13.9188 9.27138 13.9364 9.37609 13.9505C9.58218 13.9782 9.79014 13.9921 9.99996 13.9921C10.2098 13.9921 10.4177 13.9782 10.6238 13.9505C10.7285 13.9364 10.8328 13.9188 10.9365 13.8975C11.0878 13.8666 11.2368 13.8283 11.3835 13.7827C11.5284 13.7376 11.6712 13.6853 11.8117 13.6259C11.9351 13.5737 12.0559 13.5163 12.1739 13.4539C12.321 13.3761 12.4639 13.2903 12.6026 13.1966C12.7081 13.1254 12.8102 13.0501 12.9091 12.9708C13.1076 13.4353 13.348 13.8681 13.6305 14.2692C13.8753 14.6168 14.164 14.968 14.4965 15.3227C14.4469 15.3816 14.3946 15.4384 14.3397 15.4931C14.261 15.5714 14.1782 15.6442 14.0911 15.7116C13.997 15.7843 13.8981 15.8506 13.7943 15.9106C13.6904 15.9705 13.5835 16.023 13.4736 16.0681C13.3717 16.1098 13.2671 16.1452 13.16 16.1742C13.055 16.2025 12.9491 16.2243 12.8423 16.2396C12.7188 16.2571 12.594 16.2659 12.4679 16.2659L7.53208 16.2659C7.40605 16.2659 7.28128 16.2572 7.15775 16.2396C7.0509 16.2243 6.94499 16.2025 6.84002 16.1742C6.73285 16.1452 6.62832 16.1098 6.5264 16.0681C6.41647 16.023 6.30958 15.9705 6.20575 15.9106C6.10201 15.8507 6.00318 15.7844 5.90926 15.7118C5.82205 15.6444 5.73907 15.5715 5.66033 15.4931C5.58321 15.4163 5.51133 15.3354 5.44468 15.2504C5.36774 15.1523 5.29779 15.0487 5.23482 14.9396L2.76689 10.6651C2.70388 10.5559 2.6491 10.4434 2.60257 10.3277C2.56233 10.2275 2.52825 10.1249 2.50034 10.0198C2.47188 9.91263 2.45025 9.80451 2.43547 9.69546C2.41949 9.57763 2.4115 9.45872 2.4115 9.33873C2.4115 9.21876 2.41949 9.09987 2.43546 8.98207C2.45024 8.873 2.47187 8.76485 2.50034 8.65763C2.52826 8.55251 2.56235 8.44986 2.60261 8.3497C2.64913 8.23395 2.70389 8.12152 2.76689 8.0124L5.23482 3.73783C5.29783 3.62868 5.36784 3.52501 5.44485 3.42683C5.51144 3.34191 5.58327 3.26109 5.66033 3.18438C5.73894 3.10611 5.82178 3.03331 5.90884 2.96598C6.00288 2.89324 6.10185 2.82688 6.20575 2.76689C6.30964 2.70692 6.41657 2.65439 6.52657 2.60932C6.62843 2.56758 6.73291 2.53224 6.84002 2.50328C6.94501 2.4749 7.05094 2.4531 7.15781 2.43788C7.28132 2.4203 7.40607 2.4115 7.53208 2.4115L12.4679 2.4115C12.5939 2.4115 12.7187 2.4203 12.8422 2.43789C12.9491 2.4531 13.055 2.4749 13.16 2.50328C13.2671 2.53223 13.3715 2.56756 13.4733 2.60928C13.5834 2.65436 13.6903 2.7069 13.7943 2.76689C13.8982 2.82689 13.9972 2.89327 14.0912 2.96603C14.1783 3.03335 14.2611 3.10613 14.3397 3.18438C14.4167 3.26107 14.4885 3.34187 14.5551 3.42677C14.6321 3.52497 14.7022 3.62866 14.7652 3.73783L17.2331 8.0124C17.2961 8.12148 17.3508 8.23388 17.3974 8.34959C17.4376 8.44979 17.4717 8.55247 17.4997 8.65763C17.5281 8.76481 17.5497 8.87292 17.5645 8.98196C17.5748 9.05794 17.5818 9.13436 17.5855 9.21124C17.5988 9.30613 17.6141 9.42087 17.6312 9.55547C17.6923 10.0355 17.7507 10.3887 17.8062 10.6152C17.876 10.9 17.9559 11.1062 18.0458 11.234C18.3707 11.6951 18.7001 12.0733 19.0342 12.3685L19.3215 11.8708C19.4379 11.6692 19.5396 11.4616 19.6266 11.248C19.7071 11.0501 19.7751 10.847 19.8304 10.6388C19.8858 10.4302 19.9276 10.2199 19.9558 10.0077C19.9853 9.78665 20 9.56367 20 9.33872C20 9.11379 19.9853 8.89081 19.9558 8.6698C19.9276 8.45762 19.8858 8.24724 19.8304 8.03867C19.7751 7.83043 19.7071 7.62733 19.6265 7.42938C19.5396 7.21581 19.4379 7.00823 19.3215 6.80665L16.8536 2.53208C16.7372 2.33047 16.6083 2.13862 16.4668 1.95652C16.3356 1.78777 16.1937 1.6274 16.0411 1.47539C15.8881 1.3231 15.7268 1.18165 15.5571 1.05105C15.3804 0.915099 15.1947 0.790904 15 0.678468C14.8052 0.566027 14.6048 0.467305 14.3988 0.382302L14.3987 0.382271C14.2008 0.300642 13.9977 0.231666 13.7893 0.175343C13.5813 0.119109 13.3714 0.0764012 13.1597 0.0472194C12.9313 0.0157399 12.7007 0 12.4679 0L7.53208 0C7.29934 0 7.06877 0.015738 6.84037 0.0472139L6.84036 0.0472158C6.6286 0.0763978 6.41872 0.119107 6.21069 0.175343C6.00233 0.231671 5.79919 0.300654 5.60127 0.382294C5.39518 0.467298 5.19476 0.566023 5 0.678469C4.80524 0.790914 4.61953 0.915121 4.44288 1.05109L4.44286 1.0511L4.44283 1.05113C4.27318 1.1817 4.11188 1.32313 3.95894 1.47539C3.80621 1.62744 3.66427 1.78787 3.53311 1.95668C3.39166 2.13873 3.26275 2.33053 3.14639 2.53208L0.678469 6.80665C0.562082 7.00823 0.460414 7.21581 0.373463 7.42938L0.373417 7.4295C0.292848 7.62741 0.224917 7.83047 0.169626 8.03867C0.114227 8.24728 0.0723985 8.45769 0.0441391 8.66991C0.0147131 8.89089 0 9.11383 0 9.33873C0 9.56361 0.0147119 9.78654 0.0441356 10.0075C0.072395 10.2197 0.114225 10.4302 0.169625 10.6388C0.224935 10.847 0.292892 11.0502 0.373496 11.2481C0.460439 11.4617 0.562097 11.6692 0.678468 11.8708L3.14639 16.1454ZM9.48176 7.15628C9.6498 7.11654 9.82253 7.09667 9.99996 7.09667C10.1774 7.09667 10.3501 7.11654 10.5182 7.15629C10.6386 7.18477 10.7566 7.22346 10.8723 7.27236C10.9936 7.32368 11.1087 7.38461 11.2176 7.45515C11.3492 7.54048 11.4718 7.63987 11.5853 7.75333C11.6987 7.86678 11.7981 7.98934 11.8834 8.12101C11.954 8.22989 12.0149 8.34499 12.0662 8.46632C12.1151 8.58194 12.1538 8.69997 12.1823 8.82042C12.222 8.98845 12.2419 9.16119 12.2419 9.33862C12.2419 9.51605 12.222 9.68879 12.1823 9.85682C12.1538 9.97727 12.1151 10.0953 12.0662 10.2109C12.0149 10.3322 11.954 10.4473 11.8834 10.5562C11.7981 10.6879 11.6987 10.8105 11.5853 10.9239C11.4718 11.0373 11.3493 11.1367 11.2176 11.222L11.2176 11.2221C11.1087 11.2926 10.9936 11.3536 10.8723 11.4049C10.7566 11.4538 10.6386 11.4925 10.5182 11.521C10.3501 11.5607 10.1774 11.5806 9.99996 11.5806C9.82253 11.5806 9.6498 11.5607 9.48177 11.521C9.36132 11.4925 9.24328 11.4538 9.12767 11.4049C9.00634 11.3536 8.89124 11.2926 8.78237 11.2221L8.78234 11.2221L8.7823 11.222C8.65064 11.1367 8.5281 11.0373 8.41467 10.9239C8.30122 10.8105 8.20183 10.6879 8.11651 10.5562C8.04596 10.4474 7.98502 10.3322 7.9337 10.2109C7.8848 10.0953 7.84611 9.97727 7.81763 9.85682C7.77789 9.68879 7.75802 9.51605 7.75802 9.33862C7.75802 9.16118 7.77789 8.98845 7.81763 8.82041C7.84611 8.69996 7.8848 8.58194 7.9337 8.46632C7.98502 8.34499 8.04595 8.22989 8.1165 8.12102C8.20183 7.98934 8.30121 7.86678 8.41467 7.75333C8.52812 7.63987 8.65068 7.54049 8.78236 7.45516C8.89123 7.38461 9.00633 7.32368 9.12767 7.27236C9.24328 7.22346 9.36131 7.18477 9.48176 7.15628Z" fill="url(#paint_linear_0)" fill-rule="evenodd" transform="matrix(0,1,1,0,0,0)" />
		<path id="矢量 348" d="M0.291526 0C0.291526 0 -0.885389 8.00959 1.49021 11.6576C3.86581 15.3056 10.1387 14.4694 10.1387 14.4694L13.1139 10.1476L11.7693 9.03144L10.9784 8.19926C10.9784 8.19926 6.16335 9.55141 3.57781 7.47092C0.992272 5.39042 0.291526 0 0.291526 0Z" opacity="0.799999952" fill="url(#paint_linear_1)" fill-rule="evenodd" transform="matrix(0.446237,0.894915,-0.894914,0.446238,8.75391,2.69629)" />
		<path id="矢量 350" d="M0.291526 0C0.291526 0 -0.885388 8.00959 1.49021 11.6576C3.86581 15.3056 10.1387 14.4694 10.1387 14.4694L13.1139 10.1476L11.7693 9.03144L10.9784 8.19926C10.9784 8.19926 6.16335 9.55142 3.57781 7.47092C0.992271 5.39042 0.291526 0 0.291526 0Z" opacity="0.799999952" fill="url(#paint_linear_2)" fill-rule="evenodd" transform="matrix(-0.998573,-0.0534044,0.0534044,-0.998573,16.0015,14.0137)" />
		<path id="矢量 351" d="M17.3914 16.6175L18.656 15.3057C18.656 15.3057 19.3927 14.2954 19.6383 12.1064C19.8839 9.91739 19.6384 6.5498 19.6384 6.5498C19.6384 6.5498 15.4289 8.62654 15.4289 8.62654L14.6313 13.8281C14.6313 13.8281 14.9901 14.0108 16.1262 15.3745C17.2047 16.6693 17.3914 16.6175 17.3914 16.6175Z" opacity="0.649999976" fill="url(#paint_linear_3)" fill-rule="evenodd" />
	</g>
</svg>
